<svg width="20" height="20" viewBox="0 0 20 20" fill="none" xmlns="http://www.w3.org/2000/svg">
<path d="M17.6993 5.83874C17.1521 5.16113 16.5408 4.54015 15.8742 3.98478C15.2387 3.52751 14.4708 3.30207 13.6943 3.34485C12.9177 3.38764 12.178 3.69615 11.5945 4.22059C11.1801 4.6109 10.6381 5.13131 10.0005 5.74116C9.37891 5.13131 8.83696 4.6109 8.4066 4.22059C7.82187 3.69217 7.07905 3.38124 6.29906 3.33843C5.51907 3.29561 4.74784 3.52342 4.11091 3.98478C3.44994 4.54097 2.844 5.16192 2.30178 5.83874C1.85171 6.4909 1.62978 7.2786 1.6717 8.07507C1.71362 8.87154 2.01696 9.63045 2.53291 10.2297C3.05094 10.7989 3.80009 11.6039 4.6927 12.539L9.25139 17.1902C9.45214 17.3889 9.72085 17.5 10.0005 17.5C10.2802 17.5 10.5489 17.3889 10.7497 17.1902L15.3084 12.539C16.201 11.6039 16.9502 10.7989 17.4682 10.2297C17.9841 9.63045 18.2875 8.87154 18.3294 8.07507C18.3779 7.15358 17.9704 6.1744 17.6993 5.83874Z" stroke="#D8E92F" stroke-linecap="round" stroke-linejoin="round"/>
</svg>
