<svg width="20" height="20" viewBox="0 0 20 20" fill="none" xmlns="http://www.w3.org/2000/svg">
<path d="M17.6992 5.83874C17.152 5.16114 16.5407 4.54016 15.8742 3.98478C15.2387 3.52751 14.4707 3.30207 13.6942 3.34486C12.9177 3.38764 12.178 3.69616 11.5944 4.22059C11.18 4.6109 10.6381 5.13131 10.0005 5.74116C9.37885 5.13131 8.8369 4.6109 8.40654 4.22059C7.82181 3.69217 7.07899 3.38125 6.299 3.33843C5.51901 3.29561 4.74778 3.52343 4.11085 3.98478C3.44988 4.54097 2.84394 5.16193 2.30172 5.83874C1.85165 6.49091 1.62972 7.27861 1.67164 8.07507C1.71356 8.87154 2.0169 9.63046 2.53285 10.2297C3.05088 10.7989 3.80003 11.6039 4.69264 12.539L9.25133 17.1902C9.45208 17.3889 9.72079 17.5 10.0005 17.5C10.2802 17.5 10.5489 17.3889 10.7496 17.1902L15.3083 12.539C16.2009 11.6039 16.9501 10.7989 17.4681 10.2297C17.9841 9.63046 18.2874 8.87154 18.3293 8.07507C18.3778 7.15358 17.9703 6.1744 17.6992 5.83874Z" fill="#D8E92F" stroke="#D8E92F" stroke-linecap="round" stroke-linejoin="round"/>
</svg>
