<svg width="20" height="20" viewBox="0 0 20 20" fill="none" xmlns="http://www.w3.org/2000/svg">
<path d="M3.33325 4.16667C3.33325 2.78596 4.45254 1.66667 5.83325 1.66667H7.49992C8.88063 1.66667 9.99992 2.78596 9.99992 4.16667V5.83333C9.99992 7.21404 8.88063 8.33333 7.49992 8.33333H5.83325C4.45254 8.33333 3.33325 7.21404 3.33325 5.83333V4.16667Z" stroke="#D8E92F"/>
<path d="M12.0833 1.66667H13.071C14.4517 1.66667 15.571 2.78596 15.571 4.16667V5.83333C15.571 7.21404 14.4517 8.33333 13.071 8.33333H12.0833" stroke="#D8E92F" stroke-linecap="round" stroke-linejoin="round"/>
<path d="M1.44169 13.0846C1.56949 11.8066 2.6449 10.8333 3.92928 10.8333H6.25014H9.40434C10.6887 10.8333 11.7641 11.8066 11.8919 13.0846L12.2253 16.4179C12.3724 17.8896 11.2167 19.1667 9.73768 19.1667H3.59595C2.11689 19.1667 0.961182 17.8896 1.10835 16.4179L1.44169 13.0846Z" stroke="#D8E92F"/>
<path d="M14.1667 19.1667H16.142C17.621 19.1667 18.7767 17.8896 18.6296 16.4179L18.2962 13.0846C18.1684 11.8066 17.093 10.8333 15.8086 10.8333H13.75" stroke="#D8E92F" stroke-linecap="round"/>
</svg>
