<svg width="20" height="20" viewBox="0 0 20 20" fill="none" xmlns="http://www.w3.org/2000/svg">
<path d="M6.66663 4.16667C6.66663 2.78596 7.78591 1.66667 9.16663 1.66667H10.8333C12.214 1.66667 13.3333 2.78596 13.3333 4.16667V5.83333C13.3333 7.21405 12.214 8.33333 10.8333 8.33333H9.16663C7.78591 8.33333 6.66663 7.21405 6.66663 5.83333V4.16667Z" stroke="#D8E92F"/>
<path d="M3.68587 13.0846C3.81608 11.8066 4.91175 10.8333 6.22032 10.8333L13.7798 10.8333C15.0883 10.8333 16.184 11.8066 16.3142 13.0846L16.6538 16.4179C16.8038 17.8896 15.6263 19.1667 14.1194 19.1667L5.8807 19.1667C4.37379 19.1667 3.19632 17.8896 3.34626 16.4179L3.68587 13.0846Z" stroke="#D8E92F"/>
</svg>
