<svg width="1217" height="755" viewBox="0 0 1217 755" fill="none" xmlns="http://www.w3.org/2000/svg">
<path d="M565.817 323.845C587.35 300.439 590.476 256.056 572.138 234.316C552.689 211.326 542.964 201.533 519.903 182.085C510.664 174.306 497.119 170 481.768 170C462.389 170 442.731 177.015 430.367 188.336C402.027 214.382 345.763 269.322 314.991 299.536L292.069 322.456L269.355 299.744C238.375 269.322 182.181 214.452 153.771 188.336C141.477 177.015 121.749 170 102.37 170C87.0187 170 73.4737 174.306 64.2353 182.085C41.2436 201.533 31.4495 211.257 12.0003 234.316C-6.33754 256.056 -3.21177 300.439 18.3213 323.845C44.4388 352.253 99.3134 408.443 129.738 439.49L152.035 462.202L129.738 484.914C99.3134 515.891 44.3694 572.151 18.3213 600.558C-3.21177 623.965 -6.33754 668.347 12.0003 690.087C31.4495 713.077 41.1741 722.87 64.2353 742.318C73.4737 750.097 87.0187 754.403 102.37 754.403C121.749 754.403 141.407 747.388 153.771 736.067C182.181 709.951 238.445 655.012 269.147 624.868L292.069 601.947L314.783 624.659C345.832 655.151 402.166 710.16 430.436 736.067C442.731 747.388 462.458 754.403 481.838 754.403C497.189 754.403 510.734 750.097 519.972 742.318C542.964 722.87 552.758 713.146 572.207 690.087C590.545 668.347 587.419 624.034 565.886 600.558C539.769 572.151 484.894 515.961 454.47 484.914L432.173 462.202L454.47 439.49C484.964 408.443 539.977 352.114 565.886 323.845H565.817Z" fill="#242728"/>
<path d="M709.405 3.88982C676.344 5.27905 638.768 37.0924 636.337 65.7105C634.601 86.6184 634.601 141.215 636.337 162.193C638.768 190.811 676.344 222.624 709.405 224.013C738.09 225.264 783.445 226.167 828.105 226.861C828.105 226.861 688.429 369.118 653.493 407.114C631.058 431.495 627.03 480.535 645.505 502.484C659.049 518.53 697.667 557.151 713.711 570.696C735.659 589.242 784.695 585.144 809.074 562.707C847.205 527.699 989.313 388.498 989.313 388.498C990.007 433.092 990.91 478.242 992.091 506.791C993.48 539.855 1025.29 577.433 1053.91 579.864C1093.15 583.199 1111.14 583.199 1150.38 579.864C1179 577.433 1210.81 539.855 1212.2 506.791C1213.79 469.004 1215.25 390.304 1216.16 290.905L1216.16 86.7573C1216.16 38.8983 1177.26 -3.14485e-05 1129.41 -2.93566e-05L925.274 -2.04338e-05C866.653 0.555674 760.941 1.80593 709.405 3.95924L709.405 3.88982Z" fill="#242728"/>
</svg>
